<mxfile host="app.diagrams.net" agent="Mozilla/5.0 (Windows NT 10.0; Win64; x64) AppleWebKit/537.36 (KHTML, like Gecko) Chrome/140.0.0.0 Safari/537.36 Edg/140.0.0.0" version="28.2.5">
  <diagram name="Sayfa -1" id="Efx3xEIfqM5Mtu6jMtC5">
    <mxGraphModel dx="1861" dy="1835" grid="1" gridSize="10" guides="1" tooltips="1" connect="1" arrows="1" fold="1" page="1" pageScale="1" pageWidth="827" pageHeight="1169" math="0" shadow="0">
      <root>
        <mxCell id="0" />
        <mxCell id="1" parent="0" />
        <mxCell id="GHLYJHZcWAGgKWrZcpmm-1" value="&lt;div style=&quot;&quot;&gt;&lt;b&gt;Musteri&lt;/b&gt;&lt;/div&gt;&lt;div&gt;&lt;b&gt;------------&lt;/b&gt;&lt;/div&gt;&lt;div&gt;&lt;b&gt;kimlik (PK)&lt;/b&gt;&lt;/div&gt;&lt;div&gt;&lt;b&gt;reklam&lt;/b&gt;&lt;/div&gt;&lt;div&gt;&lt;b&gt;soya&lt;/b&gt;&lt;/div&gt;&lt;div&gt;&lt;b&gt;E-posta&lt;/b&gt;&lt;/div&gt;&lt;div&gt;&lt;b style=&quot;background-color: transparent; color: light-dark(rgb(0, 0, 0), rgb(255, 255, 255));&quot;&gt;Åžehir&lt;/b&gt;&lt;/div&gt;&lt;div&gt;&lt;b&gt;kayit_tarihi&lt;/b&gt;&lt;/div&gt;" style="rounded=0;whiteSpace=wrap;html=1;align=center;" vertex="1" parent="1">
          <mxGeometry x="-110" y="-1090" width="190" height="150" as="geometry" />
        </mxCell>
      </root>
    </mxGraphModel>
  </diagram>
</mxfile>
